<!--?xml version="1.0" encoding="utf-8"?-->
<!-- Generator: Adobe Illustrator 15.1.0, SVG Export Plug-In . SVG Version: 6.00 Build 0)  -->

<svg version="1.1" id="_x32_" xmlns="http://www.w3.org/2000/svg" xmlns:xlink="http://www.w3.org/1999/xlink" x="0px" y="0px" width="512px" height="512px" viewBox="0 0 512 512" style="width: 256px; height: 256px; opacity: 1;" xml:space="preserve">
<style type="text/css">

	.st0{fill:#4B4B4B;}

</style>
<g>
	<path class="st0" d="M256,0l-9,5.031L8.734,138.266V512h206.672h14.766h51.672h14.766h206.656V138.266L256,0z M466.359,475.094
		H318.75V340.781H193.266v134.313H45.641V159.906L256,42.281l210.359,117.625V475.094z" style="fill: rgb(75, 75, 75);"></path>
	<rect x="104.141" y="359.219" class="st0" width="36.953" height="44.078" style="fill: rgb(75, 75, 75);"></rect>
	<rect x="104.141" y="261.438" class="st0" width="36.953" height="44.063" style="fill: rgb(75, 75, 75);"></rect>
	<rect x="237.516" y="261.438" class="st0" width="36.969" height="44.063" style="fill: rgb(75, 75, 75);"></rect>
	<polygon class="st0" points="235.359,103.969 235.359,141.125 198.188,141.125 198.188,182.438 235.359,182.438 235.359,219.594 
		276.641,219.594 276.641,182.438 313.813,182.438 313.813,141.125 276.641,141.125 276.641,103.969 	" style="fill: rgb(75, 75, 75);"></polygon>
	<rect x="370.828" y="261.438" class="st0" width="34.656" height="44.063" style="fill: rgb(75, 75, 75);"></rect>
	<rect x="370.906" y="359.219" class="st0" width="36.969" height="44.078" style="fill: rgb(75, 75, 75);"></rect>
</g>
</svg>
